<svg width="1481" height="668" viewBox="0 0 1481 668" fill="none" xmlns="http://www.w3.org/2000/svg">
<path opacity="0.12" d="M1333.98 267.905L1395.81 307.472L1395.81 390.312L1333.98 429.879L1272.15 390.312L1272.15 307.472L1333.98 267.905ZM1400.51 310.479C1400.5 310.476 1400.5 310.474 1400.5 310.472L1400.51 310.478L1405.74 302.296L1400.51 310.479Z" stroke="#FF003D" stroke-width="40"/>
<path opacity="0.08" d="M1207.74 103.44L1333.48 22.1674L1460.07 101.724L1460.97 266.109L1335.23 347.381L1208.64 267.825L1207.74 103.44ZM1203.06 106.467L1203.08 106.454C1203.07 106.458 1203.06 106.463 1203.06 106.467ZM1465.66 263.082L1465.65 263.087C1465.65 263.086 1465.65 263.084 1465.66 263.082L1470.92 271.231L1465.66 263.082ZM1339.67 18.1688C1339.67 18.1713 1339.66 18.1737 1339.66 18.1762L1339.67 18.1688ZM1327.26 18.2566C1327.25 18.2526 1327.25 18.2485 1327.24 18.2445L1327.26 18.2566Z" stroke="#FF003D" stroke-width="40"/>
<path d="M952.246 67.5957C956.587 67.5957 960.67 65.7334 963.746 62.338C970.082 55.3429 970.082 43.9531 963.746 36.958C957.41 29.9629 947.093 29.9629 940.756 36.958C937.681 40.3534 935.994 44.8616 935.994 49.6537C935.994 54.4458 937.681 58.954 940.756 62.3494C943.822 65.7334 947.905 67.5957 952.246 67.5957ZM952.246 33.9715C955.887 33.9715 959.518 35.5045 962.285 38.5592C967.819 44.6685 967.819 54.6161 962.285 60.7369C959.601 63.7007 956.031 65.3246 952.246 65.3246C948.45 65.3246 944.881 63.6894 942.207 60.7369C939.522 57.773 938.051 53.8326 938.051 49.6537C938.051 45.4748 939.532 41.523 942.207 38.5705C944.974 35.5045 948.615 33.9715 952.246 33.9715Z" fill="white"/>
<g opacity="0.2">
<circle cx="233.14" cy="418.505" r="2.5" transform="rotate(-180 233.14 418.505)" fill="#FF003D"/>
<circle cx="210.14" cy="418.505" r="2.5" transform="rotate(-180 210.14 418.505)" fill="#FF003D"/>
<circle cx="187.14" cy="418.505" r="2.5" transform="rotate(-180 187.14 418.505)" fill="#FF003D"/>
<circle cx="164.14" cy="418.505" r="2.5" transform="rotate(-180 164.14 418.505)" fill="#FF003D"/>
<circle cx="141.14" cy="418.505" r="2.5" transform="rotate(-180 141.14 418.505)" fill="#FF003D"/>
<circle cx="118.14" cy="418.505" r="2.5" transform="rotate(-180 118.14 418.505)" fill="#FF003D"/>
<circle cx="95.1398" cy="418.505" r="2.5" transform="rotate(-180 95.1398 418.505)" fill="#FF003D"/>
<circle cx="72.1398" cy="418.505" r="2.5" transform="rotate(-180 72.1398 418.505)" fill="#FF003D"/>
<circle cx="49.1398" cy="418.505" r="2.5" transform="rotate(-180 49.1398 418.505)" fill="#FF003D"/>
<circle cx="26.1398" cy="418.505" r="2.5" transform="rotate(-180 26.1398 418.505)" fill="#FF003D"/>
<circle cx="3.13977" cy="418.505" r="2.5" transform="rotate(-180 3.13977 418.505)" fill="#FF003D"/>
<circle cx="233.14" cy="441.505" r="2.5" transform="rotate(-180 233.14 441.505)" fill="#FF003D"/>
<circle cx="210.14" cy="441.505" r="2.5" transform="rotate(-180 210.14 441.505)" fill="#FF003D"/>
<circle cx="187.14" cy="441.505" r="2.5" transform="rotate(-180 187.14 441.505)" fill="#FF003D"/>
<circle cx="164.14" cy="441.505" r="2.5" transform="rotate(-180 164.14 441.505)" fill="#FF003D"/>
<circle cx="141.14" cy="441.505" r="2.5" transform="rotate(-180 141.14 441.505)" fill="#FF003D"/>
<circle cx="118.14" cy="441.505" r="2.5" transform="rotate(-180 118.14 441.505)" fill="#FF003D"/>
<circle cx="95.1398" cy="441.505" r="2.5" transform="rotate(-180 95.1398 441.505)" fill="#FF003D"/>
<circle cx="72.1398" cy="441.505" r="2.5" transform="rotate(-180 72.1398 441.505)" fill="#FF003D"/>
<circle cx="49.1398" cy="441.505" r="2.5" transform="rotate(-180 49.1398 441.505)" fill="#FF003D"/>
<circle cx="26.1398" cy="441.505" r="2.5" transform="rotate(-180 26.1398 441.505)" fill="#FF003D"/>
<circle cx="3.13977" cy="441.505" r="2.5" transform="rotate(-180 3.13977 441.505)" fill="#FF003D"/>
<circle cx="233.14" cy="464.505" r="2.5" transform="rotate(-180 233.14 464.505)" fill="#FF003D"/>
<circle cx="210.14" cy="464.505" r="2.5" transform="rotate(-180 210.14 464.505)" fill="#FF003D"/>
<circle cx="187.14" cy="464.505" r="2.5" transform="rotate(-180 187.14 464.505)" fill="#FF003D"/>
<circle cx="164.14" cy="464.505" r="2.5" transform="rotate(-180 164.14 464.505)" fill="#FF003D"/>
<circle cx="141.14" cy="464.505" r="2.5" transform="rotate(-180 141.14 464.505)" fill="#FF003D"/>
<circle cx="118.14" cy="464.505" r="2.5" transform="rotate(-180 118.14 464.505)" fill="#FF003D"/>
<circle cx="95.1398" cy="464.505" r="2.5" transform="rotate(-180 95.1398 464.505)" fill="#FF003D"/>
<circle cx="72.1398" cy="464.505" r="2.5" transform="rotate(-180 72.1398 464.505)" fill="#FF003D"/>
<circle cx="49.1398" cy="464.505" r="2.5" transform="rotate(-180 49.1398 464.505)" fill="#FF003D"/>
<circle cx="26.1398" cy="464.505" r="2.5" transform="rotate(-180 26.1398 464.505)" fill="#FF003D"/>
<circle cx="3.13977" cy="464.505" r="2.5" transform="rotate(-180 3.13977 464.505)" fill="#FF003D"/>
<circle cx="233.14" cy="487.505" r="2.5" transform="rotate(-180 233.14 487.505)" fill="#FF003D"/>
<circle cx="210.14" cy="487.505" r="2.5" transform="rotate(-180 210.14 487.505)" fill="#FF003D"/>
<circle cx="187.14" cy="487.505" r="2.5" transform="rotate(-180 187.14 487.505)" fill="#FF003D"/>
<circle cx="164.14" cy="487.505" r="2.5" transform="rotate(-180 164.14 487.505)" fill="#FF003D"/>
<circle cx="141.14" cy="487.505" r="2.5" transform="rotate(-180 141.14 487.505)" fill="#FF003D"/>
<circle cx="118.14" cy="487.505" r="2.5" transform="rotate(-180 118.14 487.505)" fill="#FF003D"/>
<circle cx="95.1398" cy="487.505" r="2.5" transform="rotate(-180 95.1398 487.505)" fill="#FF003D"/>
<circle cx="72.1398" cy="487.505" r="2.5" transform="rotate(-180 72.1398 487.505)" fill="#FF003D"/>
<circle cx="49.1398" cy="487.505" r="2.5" transform="rotate(-180 49.1398 487.505)" fill="#FF003D"/>
<circle cx="26.1398" cy="487.505" r="2.5" transform="rotate(-180 26.1398 487.505)" fill="#FF003D"/>
<circle cx="3.13977" cy="487.505" r="2.5" transform="rotate(-180 3.13977 487.505)" fill="#FF003D"/>
<circle cx="233.14" cy="510.505" r="2.5" transform="rotate(-180 233.14 510.505)" fill="#FF003D"/>
<circle cx="210.14" cy="510.505" r="2.5" transform="rotate(-180 210.14 510.505)" fill="#FF003D"/>
<circle cx="187.14" cy="510.505" r="2.5" transform="rotate(-180 187.14 510.505)" fill="#FF003D"/>
<circle cx="164.14" cy="510.505" r="2.5" transform="rotate(-180 164.14 510.505)" fill="#FF003D"/>
<circle cx="141.14" cy="510.505" r="2.5" transform="rotate(-180 141.14 510.505)" fill="#FF003D"/>
<circle cx="118.14" cy="510.505" r="2.5" transform="rotate(-180 118.14 510.505)" fill="#FF003D"/>
<circle cx="95.1398" cy="510.505" r="2.5" transform="rotate(-180 95.1398 510.505)" fill="#FF003D"/>
<circle cx="72.1398" cy="510.505" r="2.5" transform="rotate(-180 72.1398 510.505)" fill="#FF003D"/>
<circle cx="49.1398" cy="510.505" r="2.5" transform="rotate(-180 49.1398 510.505)" fill="#FF003D"/>
<circle cx="26.1398" cy="510.505" r="2.5" transform="rotate(-180 26.1398 510.505)" fill="#FF003D"/>
<circle cx="3.13977" cy="510.505" r="2.5" transform="rotate(-180 3.13977 510.505)" fill="#FF003D"/>
<circle cx="233.14" cy="533.505" r="2.5" transform="rotate(-180 233.14 533.505)" fill="#FF003D"/>
<circle cx="210.14" cy="533.505" r="2.5" transform="rotate(-180 210.14 533.505)" fill="#FF003D"/>
<circle cx="187.14" cy="533.505" r="2.5" transform="rotate(-180 187.14 533.505)" fill="#FF003D"/>
<circle cx="164.14" cy="533.505" r="2.5" transform="rotate(-180 164.14 533.505)" fill="#FF003D"/>
<circle cx="141.14" cy="533.505" r="2.5" transform="rotate(-180 141.14 533.505)" fill="#FF003D"/>
<circle cx="118.14" cy="533.505" r="2.5" transform="rotate(-180 118.14 533.505)" fill="#FF003D"/>
<circle cx="95.1398" cy="533.505" r="2.5" transform="rotate(-180 95.1398 533.505)" fill="#FF003D"/>
<circle cx="72.1398" cy="533.505" r="2.5" transform="rotate(-180 72.1398 533.505)" fill="#FF003D"/>
<circle cx="49.1398" cy="533.505" r="2.5" transform="rotate(-180 49.1398 533.505)" fill="#FF003D"/>
<circle cx="26.1398" cy="533.505" r="2.5" transform="rotate(-180 26.1398 533.505)" fill="#FF003D"/>
<circle cx="3.13977" cy="533.505" r="2.5" transform="rotate(-180 3.13977 533.505)" fill="#FF003D"/>
<circle cx="233.14" cy="556.505" r="2.5" transform="rotate(-180 233.14 556.505)" fill="#FF003D"/>
<circle cx="210.14" cy="556.505" r="2.5" transform="rotate(-180 210.14 556.505)" fill="#FF003D"/>
<circle cx="187.14" cy="556.505" r="2.5" transform="rotate(-180 187.14 556.505)" fill="#FF003D"/>
<circle cx="164.14" cy="556.505" r="2.5" transform="rotate(-180 164.14 556.505)" fill="#FF003D"/>
<circle cx="141.14" cy="556.505" r="2.5" transform="rotate(-180 141.14 556.505)" fill="#FF003D"/>
<circle cx="118.14" cy="556.505" r="2.5" transform="rotate(-180 118.14 556.505)" fill="#FF003D"/>
<circle cx="95.1398" cy="556.505" r="2.5" transform="rotate(-180 95.1398 556.505)" fill="#FF003D"/>
<circle cx="72.1398" cy="556.505" r="2.5" transform="rotate(-180 72.1398 556.505)" fill="#FF003D"/>
<circle cx="49.1398" cy="556.505" r="2.5" transform="rotate(-180 49.1398 556.505)" fill="#FF003D"/>
<circle cx="26.1398" cy="556.505" r="2.5" transform="rotate(-180 26.1398 556.505)" fill="#FF003D"/>
<circle cx="3.13977" cy="556.505" r="2.5" transform="rotate(-180 3.13977 556.505)" fill="#FF003D"/>
<circle cx="233.14" cy="579.505" r="2.5" transform="rotate(-180 233.14 579.505)" fill="#FF003D"/>
<circle cx="210.14" cy="579.505" r="2.5" transform="rotate(-180 210.14 579.505)" fill="#FF003D"/>
<circle cx="187.14" cy="579.505" r="2.5" transform="rotate(-180 187.14 579.505)" fill="#FF003D"/>
<circle cx="164.14" cy="579.505" r="2.5" transform="rotate(-180 164.14 579.505)" fill="#FF003D"/>
<circle cx="141.14" cy="579.505" r="2.5" transform="rotate(-180 141.14 579.505)" fill="#FF003D"/>
<circle cx="118.14" cy="579.505" r="2.5" transform="rotate(-180 118.14 579.505)" fill="#FF003D"/>
<circle cx="95.1398" cy="579.505" r="2.5" transform="rotate(-180 95.1398 579.505)" fill="#FF003D"/>
<circle cx="72.1398" cy="579.505" r="2.5" transform="rotate(-180 72.1398 579.505)" fill="#FF003D"/>
<circle cx="49.1398" cy="579.505" r="2.5" transform="rotate(-180 49.1398 579.505)" fill="#FF003D"/>
<circle cx="26.1398" cy="579.505" r="2.5" transform="rotate(-180 26.1398 579.505)" fill="#FF003D"/>
<circle cx="3.13977" cy="579.505" r="2.5" transform="rotate(-180 3.13977 579.505)" fill="#FF003D"/>
</g>
</svg>
